# xmcd
#
# Track frame offsets:
#	150
#	60568
#	95011
#	121108
#
# Disc length: 2251 seconds
# Revision: 0
# Processed by: cddbd v1.5.2PL0 Copyright (c) Steve Scherf et al.
# Submitted via: dBpowerAMP V12.0
#
DISCID=2c08c904
DTITLE=West, Bruce and Laing - Live 'N' Kickin'
DYEAR=1974
DGENRE=Hardrock
TTITLE0=Play With Fire
TTITLE1=The Doctor
TTITLE2=Politician
TTITLE3=Powerhouse Sod
EXTD=
EXTT0=
EXTT1=
EXTT2=
EXTT3=
PLAYORDER=
